<svg xmlns="http://www.w3.org/2000/svg" width="69.406" height="69.406" viewBox="0 0 69.406 69.406">
  <g id="Group_3" data-name="Group 3" transform="translate(0)">
    <path id="Path_3" data-name="Path 3" d="M30.674,4A26.674,26.674,0,1,0,57.348,30.674,26.705,26.705,0,0,0,30.674,4Zm3.334,43.062v3.618H27.34v-3.6c-7.8-1.224-10-6.675-10-9.736h6.668c.037.477.53,3.334,6.668,3.334,4.6,0,6.668-1.951,6.668-3.334,0-1.08,0-3.334-6.668-3.334-11.6,0-13.337-6.268-13.337-10,0-4.295,3.431-8.616,10-9.719V10.709h6.668v3.7a10.008,10.008,0,0,1,8,9.6H38.676l-3.334.06c-.047-1.267-.717-3.394-4.668-3.394-4.331,0-6.668,1.72-6.668,3.334,0,1.247,0,3.334,6.668,3.334,11.6,0,13.337,6.268,13.337,10C44.011,41.637,40.58,45.958,34.008,47.062Z" transform="translate(4.029 4.029)" fill="rgba(0,0,0,0)"/>
    <path id="Path_4" data-name="Path 4" d="M36.7,2a34.7,34.7,0,1,0,34.7,34.7A34.742,34.742,0,0,0,36.7,2Zm0,62.465A27.762,27.762,0,1,1,64.465,36.7,27.795,27.795,0,0,1,36.7,64.465Z" transform="translate(-2 -2)" fill="#66cc81"/>
    <path id="Path_5" data-name="Path 5" d="M24.058,21.508c-8.029,0-8.029-1.945-8.029-3.107,0-1.5,2.814-3.107,8.029-3.107,4.757,0,5.564,1.982,5.62,3.162l4.015-.056h4.015c0-3.187-2.674-7.67-9.635-8.944V6.012H20.044V9.345C12.131,10.374,8,14.4,8,18.4c0,3.479,2.088,9.32,16.058,9.32,8.029,0,8.029,2.1,8.029,3.107,0,1.289-2.489,3.107-8.029,3.107-7.391,0-7.985-2.662-8.029-3.107H8c0,2.852,2.654,7.931,12.044,9.071v3.355h8.029V39.883c7.913-1.028,12.044-5.054,12.044-9.056C40.116,27.348,38.029,21.508,24.058,21.508Z" transform="translate(10.645 10.094)" fill="#66cc81"/>
  </g>
</svg>
