<svg id="bxl-reddit" xmlns="http://www.w3.org/2000/svg" width="69.406" height="69.406" viewBox="0 0 69.406 69.406">
  <circle id="Ellipse_1" data-name="Ellipse 1" cx="3.483" cy="3.483" r="3.483" transform="translate(23.137 34.69)" fill="#438ec9"/>
  <path id="Path_6" data-name="Path 6" d="M25.523,23.7a11.389,11.389,0,0,1-7.271,2.122,11.382,11.382,0,0,1-7.24-2.192.938.938,0,0,0-1.319,1.322,13.333,13.333,0,0,0,8.6,2.679,13.316,13.316,0,0,0,8.594-2.679v.139a.973.973,0,1,0-1.36-1.392ZM26.25,12.04a3.479,3.479,0,0,0,0,6.958l-.028.136a1.507,1.507,0,0,0,.177,0,3.551,3.551,0,0,0-.15-7.094Z" transform="translate(16.447 22.776)" fill="#438ec9"/>
  <path id="Path_7" data-name="Path 7" d="M36.7,2a34.7,34.7,0,1,0,34.7,34.7A34.707,34.707,0,0,0,36.7,2ZM57.039,41.319a10.148,10.148,0,0,1,0,1.523c0,7.777-9.057,14.1-20.232,14.1s-20.232-6.316-20.232-14.1a9.3,9.3,0,0,1,0-1.523,5.065,5.065,0,1,1,5.58-8.294,24.8,24.8,0,0,1,13.531-4.268l2.578-12.042V16.7a1.079,1.079,0,0,1,1.284-.819l8.5,1.7a3.466,3.466,0,1,1-.455,2.117l-7.42-1.562L37.921,28.964a24.708,24.708,0,0,1,13.361,4.268,5.029,5.029,0,1,1,5.757,8.086Z" transform="translate(-2 -2)" fill="#438ec9"/>
</svg>
