<svg xmlns="http://www.w3.org/2000/svg" width="130.22" height="52.908" viewBox="0 0 130.22 52.908">
  <path id="bxl-visa" d="M96.66,11.1a21.258,21.258,0,0,0-9.446-2.166C76.8,8.935,69.39,25.878,69.39,25.878S74.617,37.348,78.621,39.8c4.108,2.52,5.481,4.108,5.468,6.361-.026,3.426-3.281,4.98-6.308,4.98a17.742,17.742,0,0,1-9.928-2.693l-1.3-.8-1.478,11.5a27.954,27.954,0,0,0,11.809,2.7c11.074,0,18.313-6.913,18.4-17.538.091-5.86-2.773-10.288-8.8-13.948-3.665-2.374-5.937-3.962-5.937-6.37,0-2.132,1.946-4.41,6.015-4.41a15.216,15.216,0,0,1,7.9,1.976l.977.578,1.478-11.108-.254.078Zm27.03-1.234h-8.138c-2.532,0-4.44.924-5.547,4.255l-15.65,47h11.074l2.213-7.707,13.515.017c.319,1.8,1.3,7.69,1.3,7.69h9.765L123.69,9.867ZM54.41,9.436H64.963l-6.6,51.285H47.822l6.588-51.3ZM27.621,37.7l1.094,7.121L39.027,9.867H50.2L33.6,61.057H22.446L13.332,17.713A2.988,2.988,0,0,0,12.362,16,38.985,38.985,0,0,0,2,10.911l.143-1.079H19.126c2.3.121,4.16,1.079,4.778,4.341l3.711,23.554V37.7Zm83.048,5.23,4.205-14.345c-.052.155.866-2.96,1.4-4.885L117,28.13l2.441,14.793h-8.775v.009Z" transform="translate(-1.998 -8.935)" fill="#609edc"/>
</svg>
